<mxfile host="www.draw.io" modified="2020-01-16T00:38:02.793Z" agent="Mozilla/5.0 (Macintosh; Intel Mac OS X 10_11_6) AppleWebKit/537.36 (KHTML, like Gecko) Chrome/79.0.3945.117 Safari/537.36" etag="lV3JTkyl67NJySFmI1Zp" version="12.5.4" type="github" pages="2">
  <diagram name="Flujo" id="e7e014a7-5840-1c2e-5031-d8a46d1fe8dd">
    <mxGraphModel dx="946" dy="646" grid="1" gridSize="10" guides="1" tooltips="1" connect="1" arrows="1" fold="1" page="1" pageScale="1" pageWidth="1169" pageHeight="826" background="#ffffff" math="0" shadow="0">
      <root>
        <mxCell id="0"/>
        <mxCell id="1" parent="0"/>
        <mxCell id="2" value="Usuario" style="swimlane;whiteSpace=wrap;direction=east;" parent="1" vertex="1">
          <mxGeometry x="100" y="90" width="590" height="560" as="geometry"/>
        </mxCell>
        <object label="Dejar Rastro&lt;br&gt;Inicio/Fin" Descripcion="Al pulsar empieza a dejar rastro, se va guardando el rastro en Base de datos&#xa;&#xa;Si ya está dejando rastro la opción es finalizar rastro, no dejar rastro&#xa;&#xa;Si está en finalizar, la opción es dejar rastro" id="QhEU6x6N_ftUbbuGNcNT-46">
          <mxCell style="ellipse;whiteSpace=wrap;html=1;" vertex="1" parent="2">
            <mxGeometry x="10" y="265" width="100" height="40" as="geometry"/>
          </mxCell>
        </object>
        <mxCell id="QhEU6x6N_ftUbbuGNcNT-71" style="edgeStyle=orthogonalEdgeStyle;rounded=0;orthogonalLoop=1;jettySize=auto;html=1;" edge="1" parent="2" source="QhEU6x6N_ftUbbuGNcNT-47" target="QhEU6x6N_ftUbbuGNcNT-70">
          <mxGeometry relative="1" as="geometry"/>
        </mxCell>
        <object label="Rastrear" Descripción="Empieza a revisar el rastro de las personas a las que se dio derecho a rastrear" id="QhEU6x6N_ftUbbuGNcNT-47">
          <mxCell style="ellipse;whiteSpace=wrap;html=1;" vertex="1" parent="2">
            <mxGeometry x="120" y="260" width="100" height="40" as="geometry"/>
          </mxCell>
        </object>
        <mxCell id="QhEU6x6N_ftUbbuGNcNT-68" style="edgeStyle=orthogonalEdgeStyle;rounded=0;orthogonalLoop=1;jettySize=auto;html=1;" edge="1" parent="2" source="QhEU6x6N_ftUbbuGNcNT-49" target="QhEU6x6N_ftUbbuGNcNT-66">
          <mxGeometry relative="1" as="geometry"/>
        </mxCell>
        <object label="Ver &lt;br&gt;Rastro, Rastros" Descripcion="Se ven los rastros dejados, empezando con el actual a los más antiguos" id="QhEU6x6N_ftUbbuGNcNT-49">
          <mxCell style="ellipse;whiteSpace=wrap;html=1;" vertex="1" parent="2">
            <mxGeometry x="230" y="250" width="110" height="50" as="geometry"/>
          </mxCell>
        </object>
        <mxCell id="5" value="" style="ellipse;shape=startState;fillColor=#000000;strokeColor=#ff0000;" parent="2" vertex="1">
          <mxGeometry x="170" y="30" width="30" height="30" as="geometry"/>
        </mxCell>
        <mxCell id="7" value="Menu" style="" parent="2" vertex="1">
          <mxGeometry x="130" y="90" width="110" height="30" as="geometry"/>
        </mxCell>
        <mxCell id="QhEU6x6N_ftUbbuGNcNT-58" style="edgeStyle=orthogonalEdgeStyle;rounded=0;orthogonalLoop=1;jettySize=auto;html=1;entryX=0.5;entryY=0;entryDx=0;entryDy=0;" edge="1" parent="2" source="5" target="7">
          <mxGeometry relative="1" as="geometry"/>
        </mxCell>
        <mxCell id="QhEU6x6N_ftUbbuGNcNT-64" style="edgeStyle=orthogonalEdgeStyle;rounded=0;orthogonalLoop=1;jettySize=auto;html=1;entryX=0.5;entryY=0;entryDx=0;entryDy=0;" edge="1" parent="2" source="QhEU6x6N_ftUbbuGNcNT-42" target="QhEU6x6N_ftUbbuGNcNT-49">
          <mxGeometry relative="1" as="geometry">
            <Array as="points">
              <mxPoint x="190" y="190"/>
              <mxPoint x="285" y="190"/>
            </Array>
          </mxGeometry>
        </mxCell>
        <mxCell id="QhEU6x6N_ftUbbuGNcNT-77" style="edgeStyle=orthogonalEdgeStyle;rounded=0;orthogonalLoop=1;jettySize=auto;html=1;" edge="1" parent="2" source="QhEU6x6N_ftUbbuGNcNT-42" target="QhEU6x6N_ftUbbuGNcNT-74">
          <mxGeometry relative="1" as="geometry">
            <Array as="points">
              <mxPoint x="200" y="180"/>
              <mxPoint x="400" y="180"/>
            </Array>
          </mxGeometry>
        </mxCell>
        <mxCell id="QhEU6x6N_ftUbbuGNcNT-42" value="" style="shape=line;html=1;strokeWidth=6;strokeColor=#ff0000;" vertex="1" parent="2">
          <mxGeometry x="140" y="160" width="80" height="10" as="geometry"/>
        </mxCell>
        <mxCell id="QhEU6x6N_ftUbbuGNcNT-54" style="edgeStyle=orthogonalEdgeStyle;rounded=0;orthogonalLoop=1;jettySize=auto;html=1;" edge="1" parent="2" source="QhEU6x6N_ftUbbuGNcNT-42" target="QhEU6x6N_ftUbbuGNcNT-46">
          <mxGeometry relative="1" as="geometry">
            <Array as="points">
              <mxPoint x="160" y="190"/>
              <mxPoint x="60" y="190"/>
            </Array>
          </mxGeometry>
        </mxCell>
        <mxCell id="QhEU6x6N_ftUbbuGNcNT-55" style="edgeStyle=orthogonalEdgeStyle;rounded=0;orthogonalLoop=1;jettySize=auto;html=1;entryX=0.5;entryY=0;entryDx=0;entryDy=0;" edge="1" parent="2" source="QhEU6x6N_ftUbbuGNcNT-42" target="QhEU6x6N_ftUbbuGNcNT-47">
          <mxGeometry relative="1" as="geometry">
            <Array as="points">
              <mxPoint x="170" y="255"/>
            </Array>
          </mxGeometry>
        </mxCell>
        <mxCell id="QhEU6x6N_ftUbbuGNcNT-62" style="edgeStyle=orthogonalEdgeStyle;rounded=0;orthogonalLoop=1;jettySize=auto;html=1;entryX=0.6;entryY=0.5;entryDx=0;entryDy=0;entryPerimeter=0;" edge="1" parent="2" source="7" target="QhEU6x6N_ftUbbuGNcNT-42">
          <mxGeometry relative="1" as="geometry"/>
        </mxCell>
        <mxCell id="QhEU6x6N_ftUbbuGNcNT-69" style="edgeStyle=orthogonalEdgeStyle;rounded=0;orthogonalLoop=1;jettySize=auto;html=1;" edge="1" parent="2" source="QhEU6x6N_ftUbbuGNcNT-66" target="QhEU6x6N_ftUbbuGNcNT-67">
          <mxGeometry relative="1" as="geometry"/>
        </mxCell>
        <object label="Elegir Rastro" Descripcion="Se elige el rastro que se desea ver, del actual al mas viejo" id="QhEU6x6N_ftUbbuGNcNT-66">
          <mxCell style="ellipse;whiteSpace=wrap;html=1;" vertex="1" parent="2">
            <mxGeometry x="235" y="340" width="100" height="40" as="geometry"/>
          </mxCell>
        </object>
        <object label="Ver Rastro" Descripción="Se ve el rastro dejado" id="QhEU6x6N_ftUbbuGNcNT-67">
          <mxCell style="ellipse;whiteSpace=wrap;html=1;" vertex="1" parent="2">
            <mxGeometry x="235" y="420" width="100" height="30" as="geometry"/>
          </mxCell>
        </object>
        <mxCell id="QhEU6x6N_ftUbbuGNcNT-73" style="edgeStyle=orthogonalEdgeStyle;rounded=0;orthogonalLoop=1;jettySize=auto;html=1;entryX=0.5;entryY=0;entryDx=0;entryDy=0;" edge="1" parent="2" source="QhEU6x6N_ftUbbuGNcNT-70" target="QhEU6x6N_ftUbbuGNcNT-72">
          <mxGeometry relative="1" as="geometry"/>
        </mxCell>
        <object label="Elige Persona" Descripcion="Elige la persona a la que se desea rastrear" id="QhEU6x6N_ftUbbuGNcNT-70">
          <mxCell style="ellipse;whiteSpace=wrap;html=1;" vertex="1" parent="2">
            <mxGeometry x="125" y="332.5" width="90" height="40" as="geometry"/>
          </mxCell>
        </object>
        <object label="Ver Rastro" Descripcion="Se ve el mapa con la persona que se rastrea" id="QhEU6x6N_ftUbbuGNcNT-72">
          <mxCell style="ellipse;whiteSpace=wrap;html=1;" vertex="1" parent="2">
            <mxGeometry x="120" y="420" width="100" height="30" as="geometry"/>
          </mxCell>
        </object>
        <mxCell id="QhEU6x6N_ftUbbuGNcNT-76" value="" style="edgeStyle=orthogonalEdgeStyle;rounded=0;orthogonalLoop=1;jettySize=auto;html=1;" edge="1" parent="2" source="QhEU6x6N_ftUbbuGNcNT-74" target="QhEU6x6N_ftUbbuGNcNT-75">
          <mxGeometry relative="1" as="geometry"/>
        </mxCell>
        <object label="Rastreadores" Descripcion="Acceso a las personas que pueden rastrearme" id="QhEU6x6N_ftUbbuGNcNT-74">
          <mxCell style="ellipse;whiteSpace=wrap;html=1;" vertex="1" parent="2">
            <mxGeometry x="350" y="250" width="110" height="45" as="geometry"/>
          </mxCell>
        </object>
        <object label="Lista/Añadir/Borrar" Descripcion="Se añaden las personas que pueden acceder a mis rastros" id="QhEU6x6N_ftUbbuGNcNT-75">
          <mxCell style="ellipse;whiteSpace=wrap;html=1;" vertex="1" parent="2">
            <mxGeometry x="350" y="330" width="110" height="45" as="geometry"/>
          </mxCell>
        </object>
        <mxCell id="4" value="Thread 3" style="swimlane;whiteSpace=wrap" parent="1" vertex="1">
          <mxGeometry x="810" y="100" width="280" height="570" as="geometry"/>
        </mxCell>
      </root>
    </mxGraphModel>
  </diagram>
  <diagram id="Dm1oo0q5bmK6Jqf1tPeF" name="Tablas">
    <mxGraphModel dx="946" dy="646" grid="1" gridSize="10" guides="1" tooltips="1" connect="1" arrows="1" fold="1" page="1" pageScale="1" pageWidth="1169" pageHeight="827" math="0" shadow="0">
      <root>
        <mxCell id="dsDOiJkIsCiFrJ0K2MnO-0"/>
        <mxCell id="dsDOiJkIsCiFrJ0K2MnO-1" parent="dsDOiJkIsCiFrJ0K2MnO-0"/>
      </root>
    </mxGraphModel>
  </diagram>
</mxfile>
